<?xml version="1.0" encoding="UTF-8"?>
<svg version="1.1" xmlns="http://www.w3.org/2000/svg" width="40" height="40">
<path d="M0 0 C13.2 0 26.4 0 40 0 C40 13.2 40 26.4 40 40 C26.8 40 13.6 40 0 40 C0 26.8 0 13.6 0 0 Z " fill="#FBFBFB" transform="translate(0,0)"/>
<path d="M0 0 C5.94 0 11.88 0 18 0 C18 1.98 18 3.96 18 6 C17.34 6 16.68 6 16 6 C15.67 4.68 15.34 3.36 15 2 C12.69 2 10.38 2 8 2 C8 4.97 8 7.94 8 11 C9.32 11 10.64 11 12 11 C12 10.01 12 9.02 12 8 C12.66 8 13.32 8 14 8 C14 10.64 14 13.28 14 16 C13.34 15.34 12.68 14.68 12 14 C10.68 13.67 9.36 13.34 8 13 C8 15.97 8 18.94 8 22 C11.43793339 21.81870185 11.43793339 21.81870185 15 21 C16.51294288 19.06402968 16.51294288 19.06402968 17 17 C17.66 17 18.32 17 19 17 C19 19.31 19 21.62 19 24 C12.73 24 6.46 24 0 24 C0 23.34 0 22.68 0 22 C0.66 22 1.32 22 2 22 C1.86145912 18.70798357 1.71292976 15.41649291 1.5625 12.125 C1.52318359 11.18785156 1.48386719 10.25070312 1.44335938 9.28515625 C1.40146484 8.38925781 1.35957031 7.49335938 1.31640625 6.5703125 C1.26141968 5.32918701 1.26141968 5.32918701 1.20532227 4.06298828 C1.11761673 1.93820571 1.11761673 1.93820571 0 0 Z " fill="#131313" transform="translate(17,5)"/>
<path d="M0 0 C3.3 0 6.6 0 10 0 C9.01 0.495 9.01 0.495 8 1 C8.02618408 1.6705542 8.05236816 2.3411084 8.0793457 3.03198242 C8.18357238 6.08358128 8.24840623 9.13480542 8.3125 12.1875 C8.3753418 13.77014648 8.3753418 13.77014648 8.43945312 15.38476562 C8.56341329 23.24384006 8.56341329 23.24384006 5.625 27.1875 C3.28670674 28.80203582 1.79762822 29.68915242 -1 30 C-1 29.34 -1 28.68 -1 28 C-0.34 28 0.32 28 1 28 C1.91658383 24.82946805 2.18832039 21.87176138 2.31640625 18.578125 C2.35830078 17.55332031 2.40019531 16.52851563 2.44335938 15.47265625 C2.48267578 14.40917969 2.52199219 13.34570312 2.5625 12.25 C2.60568359 11.17105469 2.64886719 10.09210937 2.69335938 8.98046875 C2.79928989 6.32043572 2.90136421 3.66031188 3 1 C2.01 0.67 1.02 0.34 0 0 Z " fill="#0E0E0E" transform="translate(5,5)"/>
<path d="M0 0 C0.66 0 1.32 0 2 0 C2 7.26 2 14.52 2 22 C3.32 22 4.64 22 6 22 C6 18.37 6 14.74 6 11 C7.65 11 9.3 11 11 11 C9.68 11.33 8.36 11.66 7 12 C7 14.97 7 17.94 7 21 C10.43793339 20.81870185 10.43793339 20.81870185 14 20 C15.51294288 18.06402968 15.51294288 18.06402968 16 16 C16.66 16 17.32 16 18 16 C18 18.31 18 20.62 18 23 C11.73 23 5.46 23 -1 23 C-1 22.34 -1 21.68 -1 21 C-0.34 21 0.32 21 1 21 C0.67 14.07 0.34 7.14 0 0 Z " fill="#494949" transform="translate(18,6)"/>
</svg>
