<svg width="32" height="32" viewBox="0 0 32 32" fill="none" xmlns="http://www.w3.org/2000/svg">
<rect width="32" height="32" rx="5" fill="#F0E0C2"/>
<path d="M8.66094 25.4V23.32C9.0876 23.32 9.44094 23.2933 9.72094 23.24C10.0009 23.1867 10.2143 23.0933 10.3609 22.96C10.5209 22.8133 10.6343 22.6067 10.7009 22.34C10.7676 22.06 10.8009 21.7067 10.8009 21.28V8.8H13.7409V21.4C13.7409 22.3067 13.6343 23.06 13.4209 23.66C13.2076 24.2467 12.8343 24.6867 12.3009 24.98C11.7809 25.26 11.0409 25.4 10.0809 25.4H8.66094ZM16.2044 25V8.8H23.0044V10.88H19.1644V15.54H22.1844V17.6H19.1644V22.96H23.0444V25H16.2044Z" fill="black"/>
</svg>
